<?xml version="1.0" encoding="UTF-8"?>
<!DOCTYPE svg PUBLIC "-//W3C//DTD SVG 1.1//EN" "http://www.w3.org/Graphics/SVG/1.1/DTD/svg11.dtd">
<!-- Copyright 2025 VintaSoft LLC. All rights reserved. -->
<svg xmlns="http://www.w3.org/2000/svg" xml:space="preserve" width="241px" height="110px" version="1.1" style="shape-rendering:geometricPrecision; text-rendering:geometricPrecision; image-rendering:optimizeQuality; fill-rule:evenodd; clip-rule:evenodd" viewBox="0 0 179.96 81.8" xmlns:xlink="http://www.w3.org/1999/xlink">
 <defs>
  <style type="text/css">
   <![CDATA[
    .fil0 {fill:#1F1B20}
    .fil4 {fill:#190694}
    .fil5 {fill:#190694;fill-rule:nonzero}
    .fil2 {fill:url(#id0)}
    .fil3 {fill:url(#id1)}
    .fil1 {fill:url(#id2)}
   ]]>
  </style>
  <linearGradient id="id0" gradientUnits="userSpaceOnUse" x1="50.994" y1="0.845" x2="64.059" y2="13.352">
   <stop offset="0" style="stop-opacity:1; stop-color:#A10702"/>
   <stop offset="1" style="stop-opacity:1; stop-color:#E31E24"/>
  </linearGradient>
  <linearGradient id="id1" gradientUnits="userSpaceOnUse" x1="-2.576" y1="30.528" x2="36.605" y2="72.222">
   <stop offset="0" style="stop-opacity:1; stop-color:#1F1B20"/>
   <stop offset="0.45098" style="stop-opacity:1; stop-color:#1F1B20"/>
   <stop offset="0.670588" style="stop-opacity:1; stop-color:#1F1B20"/>
   <stop offset="1" style="stop-opacity:1; stop-color:#898989"/>
  </linearGradient>
  <linearGradient id="id2" gradientUnits="userSpaceOnUse" x1="150.759" y1="24.592" x2="175.511" y2="57.613">
   <stop offset="0" style="stop-opacity:1; stop-color:#1F1B20"/>
   <stop offset="0.309804" style="stop-opacity:1; stop-color:#1F1B20"/>
   <stop offset="0.658824" style="stop-opacity:1; stop-color:#1D1D1F"/>
   <stop offset="1" style="stop-opacity:1; stop-color:#898989"/>
  </linearGradient>
 </defs>
 <g>
  <g id="_2154429722624">
   <path class="fil0" d="M71.908 58.692l14.833 0.003c-0.039,-3.564 -0.132,-16.035 -0.159,-20.863 -0.018,-2.273 0.445,-3.584 2.604,-4.011 0.207,-0.041 0.434,-0.041 0.677,-0.047 2.369,0.283 2.751,1.555 2.817,4.193 0.116,4.658 0.017,9.498 0.03,14.177l0.016 6.3 14.862 -0.033c-0.188,-5.411 0.559,-23.142 -0.76,-26.94 -4.702,-13.539 -28.996,-14.543 -34.388,0.001 -0.6,1.96 -0.52,23.139 -0.532,27.22z"/>
   <path class="fil0" d="M135.587 47.211c-1.792,-0.198 -3.72,-0.144 -5.509,-0.133 -3.583,0.024 -3.436,-1.458 -3.599,-2.331l0 -0.429 -0.018 -10.025 9.138 0 0.035 -12.586 -9.173 0 0 -12.405 -14.42 -0.009c0.003,5.745 -0.292,33.174 0.089,36.346 0.918,7.637 6.463,12.968 14.34,13.002 2.88,0.013 6.307,0.142 9.129,-0.057l-0.012 -11.373z"/>
   <path class="fil1" d="M163.559 44.519c-2.984,2.196 -7.864,0.199 -8.535,-3.434 -1.4,-7.584 9.119,-8.522 9.857,-3.137l0.299 19.636 14.689 0.04c0.007,-3.265 0.283,-18.094 -0.163,-20.538 -0.608,-3.331 -2.303,-7.135 -4.55,-9.333 -3.145,-3.075 -5.626,-5.212 -10.989,-6.383 -4.955,-1.083 -10.354,-0.05 -14.262,2.184 -12.501,7.148 -13.419,24.475 -0.34,32.536 4.729,2.915 8.937,2.891 13.954,2.564l0.04 -14.135z"/>
   <ellipse class="fil2" cx="59.609" cy="9.015" rx="9.078" ry="9.014"/>
   <polygon class="fil0" points="52.035,58.784 66.967,58.84 67.018,20.937 52.037,20.937 "/>
   <path class="fil3" d="M17.763 20.986l-17.763 -0.018c0.197,1.384 10.573,49.435 12.461,53.718 2.002,5.541 6.994,7.099 11.997,7.114 5.188,0.015 10.198,-1.779 11.719,-7.329 0.968,-3.531 8.794,-35.876 12.766,-53.323l-17.849 0.001 -6.602 34.794 -6.729 -34.957z"/>
   <path class="fil4" d="M119.414 67.768l-0.272 0.607 -0.271 -0.607 0 0.021 -2.05 -4.612 -2.303 0.043 2.841 6.561c0.718,1.613 0.371,1.789 -0.436,3.446 -0.418,0.858 -1.235,2.523 -1.564,3.002 -1.061,-2.206 -5.552,-11.875 -6.286,-13.06l-2.408 -0.005 7.554 16.036 2.251 0.002 2.401 -4.972 0 0.014 0.271 -0.568 0.272 0.568 0 -0.014 2.4 4.972 2.252 -0.002 7.507 -16.036 -2.361 0.005c-0.735,1.185 -5.225,10.854 -6.287,13.06 -0.329,-0.479 -1.145,-2.144 -1.563,-3.002 -0.808,-1.657 -1.155,-1.833 -0.437,-3.446l2.857 -6.595 -2.318 -0.009 -2.05 4.612 0 -0.021z"/>
   <path class="fil5" d="M66.36 63.18l0.025 0 0.028 0c2.331,0 3.966,0.418 5.58,1.802 0.176,0.15 0.683,0.583 0.851,0.751 0.432,0.433 0.607,0.584 0.912,1.065 1.834,2.891 1.639,7.399 -1.044,10.019 -1.635,1.591 -3.735,2.385 -6.299,2.385l-0.028 0 -0.025 0c-0.259,0 -0.511,-0.009 -0.76,-0.028 -2.208,-0.152 -4.042,-0.936 -5.502,-2.357 -1.636,-1.592 -2.448,-3.456 -2.448,-5.583 0,-2.108 0.77,-3.938 2.316,-5.487 1.518,-1.529 3.399,-2.375 5.634,-2.538 0.249,-0.019 0.502,-0.029 0.76,-0.029zm0.025 1.922c-0.267,0.001 -0.529,0.015 -0.785,0.043 -1.356,0.157 -2.542,0.745 -3.56,1.764 -1.203,1.204 -1.804,2.657 -1.804,4.368 0,1.099 0.271,2.127 0.823,3.078 0.547,0.956 1.287,1.688 2.224,2.208 0.717,0.398 1.489,0.642 2.316,0.733 0.257,0.027 0.519,0.041 0.786,0.042 1.105,-0.004 2.122,-0.262 3.052,-0.775 0.932,-0.52 1.676,-1.252 2.223,-2.208 0.548,-0.951 0.824,-1.979 0.824,-3.078 0,-1.711 -0.734,-3.211 -1.942,-4.415 -1.202,-1.198 -2.501,-1.754 -4.157,-1.76z"/>
   <polygon class="fil4" points="97.469,79.188 97.687,79.202 99.929,79.202 99.941,65.401 106.124,65.408 106.041,63.231 91.356,63.164 91.323,65.408 97.407,65.426 "/>
   <polygon class="fil4" points="77.825,79.188 78.037,79.202 80.246,79.202 80.287,71.472 88.698,71.466 88.801,69.363 80.335,69.364 80.302,65.42 88.796,65.422 88.801,63.164 77.83,63.185 "/>
   <path class="fil5" d="M42.201 78.19c-0.018,-1.14 0.006,-1.435 0.006,-2.663 1.171,0.701 5.909,2.299 8.644,1.082 1.51,-0.673 2.337,-3.272 -0.061,-4.586 -2.15,-1.179 -8.192,-0.877 -8.228,-4.862 -0.009,-1.041 0.433,-2.048 1.593,-2.824 3.575,-2.392 10.254,-0.314 9.806,-0.275 0.028,0.695 -0.039,1.657 -0.05,2.353 -2.782,-1.263 -5.497,-1.215 -6.436,-1.006 -0.959,0.215 -1.646,0.753 -1.868,1.377 -0.275,0.772 -0.066,1.399 1.477,1.907 2.296,0.757 4.918,0.688 6.632,2.453 2.226,2.294 1.723,6.335 -2.065,7.611 -3.032,1.021 -7.884,0.048 -9.45,-0.567z"/>
   <path class="fil5" d="M66.368 63.18l0.025 0 0.028 0c5.162,0.073 8.495,3.99 8.574,7.726 0.087,4.098 -2.844,8.296 -8.574,8.296l-0.028 0 -0.025 0c-4.822,0 -8.71,-3.399 -8.71,-7.968 0,-4.552 3.889,-8.054 8.71,-8.054zm0.025 1.922c-3.434,0.011 -6.102,2.787 -6.156,5.962 -0.055,3.259 2.453,6.259 6.288,6.272 3.724,-0.013 5.935,-3.354 5.848,-6.495 -0.085,-3.081 -2.493,-5.726 -5.98,-5.739z"/>
   <path class="fil4" d="M138.749 69.277c0.531,-1.277 1.225,-2.994 1.623,-3.937 0.188,0.269 1.275,2.732 1.773,3.892l-3.396 0.045zm-5.324 -0.032l2.917 -0.001c1.015,-2.084 1.873,-3.996 2.78,-5.808 0.125,-0.249 0.345,-0.352 0.901,-0.365 1.084,0.014 1.445,-0.21 1.914,0.754 1.846,3.795 5.243,11.365 7.05,15.353l-2.278 0.005 -3.377 -7.982 -5.415 0 -3.454 8.001 -2.338 -0.003c0.955,-2.238 2.564,-6.335 3.265,-7.998l-2.888 0 0.923 -1.956z"/>
   <path class="fil4" d="M154.428 65.38c2.854,0.078 5.76,-0.026 5.929,2.192 -0.086,2.629 -4.043,1.766 -5.929,1.903l0 -4.095zm1.694 6.117c-0.723,-0.084 -0.147,-0.111 -1.671,-0.111l-0.023 7.816 -2.371 0 0 -15.87c0.849,-0.046 2.97,0 5.082,0 0.653,0 1.342,0.082 1.997,0.273 1.886,0.551 3.392,1.801 3.37,3.914 -0.022,2.199 -1.423,3.552 -3.529,3.958 0.642,0.874 0.864,1.013 6.666,7.662 0,0 -2.236,-0.071 -2.896,-0.005 -0.146,0.071 -6.306,-7.587 -6.625,-7.637z"/>
   <polygon class="fil4" points="170.517,65.448 179.945,65.442 179.915,63.333 168.128,63.318 168.179,79.147 179.96,79.202 179.938,77.324 170.576,77.27 170.576,71.435 179.915,71.353 179.915,69.476 170.563,69.417 "/>
  </g>
 </g>
</svg>
